<mxfile host="65bd71144e">
    <diagram id="0BU4TXC7pAmqZaQqzTCi" name="第 1 页">
        <mxGraphModel dx="960" dy="558" grid="1" gridSize="10" guides="1" tooltips="1" connect="1" arrows="1" fold="1" page="1" pageScale="1" pageWidth="827" pageHeight="1169" math="0" shadow="0">
            <root>
                <mxCell id="0"/>
                <mxCell id="1" parent="0"/>
                <mxCell id="28" style="edgeStyle=orthogonalEdgeStyle;sketch=1;html=1;entryX=0;entryY=0.5;entryDx=0;entryDy=0;exitX=1;exitY=0.5;exitDx=0;exitDy=0;" parent="1" source="23" target="26" edge="1">
                    <mxGeometry relative="1" as="geometry">
                        <mxPoint x="250" y="610" as="sourcePoint"/>
                        <mxPoint x="220" y="670" as="targetPoint"/>
                    </mxGeometry>
                </mxCell>
                <mxCell id="4" style="edgeStyle=none;html=1;exitX=1;exitY=0.5;exitDx=0;exitDy=0;entryX=0;entryY=0.5;entryDx=0;entryDy=0;sketch=1;" parent="1" source="2" target="3" edge="1">
                    <mxGeometry relative="1" as="geometry"/>
                </mxCell>
                <mxCell id="2" value="HTTP的标准解释" style="rounded=0;whiteSpace=wrap;html=1;fillColor=#ffe6cc;strokeColor=#d79b00;comic=1;" parent="1" vertex="1">
                    <mxGeometry x="40" y="40" width="120" height="40" as="geometry"/>
                </mxCell>
                <mxCell id="3" value="HTTP 是一个在计算机世界里专门在「两点」之间「传输」文字、图片、音频、视频等「超文本」数据的「约定和规范」。" style="rounded=0;whiteSpace=wrap;html=1;fillColor=#ffe6cc;strokeColor=#d79b00;comic=1;sketch=1;" parent="1" vertex="1">
                    <mxGeometry x="220" y="40" width="340" height="40" as="geometry"/>
                </mxCell>
                <mxCell id="7" style="edgeStyle=orthogonalEdgeStyle;sketch=1;html=1;exitX=1;exitY=0.25;exitDx=0;exitDy=0;entryX=0;entryY=0.5;entryDx=0;entryDy=0;curved=1;" parent="1" source="5" target="6" edge="1">
                    <mxGeometry relative="1" as="geometry"/>
                </mxCell>
                <mxCell id="9" style="sketch=1;html=1;exitX=1;exitY=0.5;exitDx=0;exitDy=0;entryX=0;entryY=0.5;entryDx=0;entryDy=0;edgeStyle=orthogonalEdgeStyle;curved=1;" parent="1" source="5" target="8" edge="1">
                    <mxGeometry relative="1" as="geometry"/>
                </mxCell>
                <mxCell id="13" style="edgeStyle=orthogonalEdgeStyle;sketch=1;html=1;exitX=1;exitY=0.5;exitDx=0;exitDy=0;entryX=0;entryY=0.5;entryDx=0;entryDy=0;curved=1;" parent="1" source="5" target="12" edge="1">
                    <mxGeometry relative="1" as="geometry"/>
                </mxCell>
                <mxCell id="45" style="sketch=1;html=1;exitX=1;exitY=0.5;exitDx=0;exitDy=0;entryX=0;entryY=0.5;entryDx=0;entryDy=0;edgeStyle=orthogonalEdgeStyle;curved=1;" parent="1" source="5" target="44" edge="1">
                    <mxGeometry relative="1" as="geometry"/>
                </mxCell>
                <mxCell id="64" style="edgeStyle=orthogonalEdgeStyle;sketch=1;html=1;exitX=1;exitY=0.5;exitDx=0;exitDy=0;entryX=0;entryY=0.5;entryDx=0;entryDy=0;elbow=vertical;curved=1;" parent="1" source="5" target="61" edge="1">
                    <mxGeometry relative="1" as="geometry"/>
                </mxCell>
                <mxCell id="5" value="HTTP 常见的状态码" style="rounded=0;whiteSpace=wrap;html=1;fillColor=#ffe6cc;strokeColor=#d79b00;comic=1;" parent="1" vertex="1">
                    <mxGeometry x="40" y="400" width="120" height="40" as="geometry"/>
                </mxCell>
                <mxCell id="6" value="" style="shape=image;imageAspect=0;aspect=fixed;verticalLabelPosition=bottom;verticalAlign=top;comic=1;sketch=1;image=https://codereaper-image-bed.oss-cn-shenzhen.aliyuncs.com/img/image-20220823115629128.png;imageBorder=default;" parent="1" vertex="1">
                    <mxGeometry x="210" y="100" width="520" height="261" as="geometry"/>
                </mxCell>
                <mxCell id="11" style="edgeStyle=none;sketch=1;html=1;exitX=1;exitY=0.5;exitDx=0;exitDy=0;entryX=0;entryY=0.5;entryDx=0;entryDy=0;" parent="1" source="8" target="10" edge="1">
                    <mxGeometry relative="1" as="geometry"/>
                </mxCell>
                <mxCell id="8" value="1xx" style="rounded=0;whiteSpace=wrap;html=1;fillColor=#dae8fc;strokeColor=#6c8ebf;comic=1;" parent="1" vertex="1">
                    <mxGeometry x="210" y="380" width="50" height="30" as="geometry"/>
                </mxCell>
                <mxCell id="10" value="提示信息，是&lt;b&gt;协议处理中的一种中间状态&lt;/b&gt;，实际用到的比较少" style="rounded=0;whiteSpace=wrap;html=1;fillColor=#ffe6cc;strokeColor=#d79b00;comic=1;sketch=1;" parent="1" vertex="1">
                    <mxGeometry x="310" y="380" width="340" height="30" as="geometry"/>
                </mxCell>
                <mxCell id="15" style="edgeStyle=none;sketch=1;html=1;exitX=1;exitY=0.5;exitDx=0;exitDy=0;entryX=0;entryY=0.5;entryDx=0;entryDy=0;" parent="1" source="12" target="14" edge="1">
                    <mxGeometry relative="1" as="geometry"/>
                </mxCell>
                <mxCell id="18" style="edgeStyle=orthogonalEdgeStyle;sketch=1;html=1;exitX=1;exitY=0.5;exitDx=0;exitDy=0;entryX=0;entryY=0.5;entryDx=0;entryDy=0;" parent="1" source="12" target="16" edge="1">
                    <mxGeometry relative="1" as="geometry"/>
                </mxCell>
                <mxCell id="20" style="edgeStyle=orthogonalEdgeStyle;sketch=1;html=1;exitX=1;exitY=0.5;exitDx=0;exitDy=0;entryX=0;entryY=0.5;entryDx=0;entryDy=0;" parent="1" source="12" target="19" edge="1">
                    <mxGeometry relative="1" as="geometry"/>
                </mxCell>
                <mxCell id="22" style="edgeStyle=orthogonalEdgeStyle;sketch=1;html=1;exitX=1;exitY=0.5;exitDx=0;exitDy=0;entryX=0;entryY=0.5;entryDx=0;entryDy=0;" parent="1" source="12" target="21" edge="1">
                    <mxGeometry relative="1" as="geometry"/>
                </mxCell>
                <mxCell id="12" value="2xx" style="rounded=0;whiteSpace=wrap;html=1;fillColor=#dae8fc;strokeColor=#6c8ebf;comic=1;" parent="1" vertex="1">
                    <mxGeometry x="210" y="450" width="50" height="30" as="geometry"/>
                </mxCell>
                <mxCell id="14" value="服务器&lt;b&gt;成功处理&lt;/b&gt;了客户端的&lt;b&gt;请求&lt;/b&gt;" style="rounded=0;whiteSpace=wrap;html=1;fillColor=#ffe6cc;strokeColor=#d79b00;comic=1;sketch=1;" parent="1" vertex="1">
                    <mxGeometry x="310" y="450" width="190" height="30" as="geometry"/>
                </mxCell>
                <mxCell id="85" style="edgeStyle=orthogonalEdgeStyle;sketch=1;html=1;exitX=1;exitY=0.5;exitDx=0;exitDy=0;entryX=0;entryY=0.5;entryDx=0;entryDy=0;elbow=vertical;" parent="1" source="16" target="84" edge="1">
                    <mxGeometry relative="1" as="geometry"/>
                </mxCell>
                <mxCell id="16" value="200 OK" style="rounded=0;whiteSpace=wrap;html=1;fillColor=#d5e8d4;strokeColor=#82b366;comic=1;" parent="1" vertex="1">
                    <mxGeometry x="310" y="500" width="90" height="30" as="geometry"/>
                </mxCell>
                <mxCell id="87" style="edgeStyle=orthogonalEdgeStyle;sketch=1;html=1;exitX=1;exitY=0.5;exitDx=0;exitDy=0;entryX=0;entryY=0.5;entryDx=0;entryDy=0;elbow=vertical;" parent="1" source="19" target="86" edge="1">
                    <mxGeometry relative="1" as="geometry"/>
                </mxCell>
                <mxCell id="19" value="204&lt;br&gt;No Content" style="rounded=0;whiteSpace=wrap;html=1;fillColor=#d5e8d4;strokeColor=#82b366;comic=1;" parent="1" vertex="1">
                    <mxGeometry x="310" y="540" width="90" height="34" as="geometry"/>
                </mxCell>
                <mxCell id="89" style="edgeStyle=orthogonalEdgeStyle;sketch=1;html=1;exitX=1;exitY=0.5;exitDx=0;exitDy=0;entryX=0;entryY=0.5;entryDx=0;entryDy=0;elbow=vertical;" parent="1" source="21" target="88" edge="1">
                    <mxGeometry relative="1" as="geometry"/>
                </mxCell>
                <mxCell id="21" value="206&lt;br&gt;Partial Content" style="rounded=0;whiteSpace=wrap;html=1;fillColor=#d5e8d4;strokeColor=#82b366;comic=1;" parent="1" vertex="1">
                    <mxGeometry x="310" y="584.5" width="90" height="34" as="geometry"/>
                </mxCell>
                <mxCell id="30" style="edgeStyle=orthogonalEdgeStyle;sketch=1;html=1;exitX=1;exitY=0.5;exitDx=0;exitDy=0;entryX=0;entryY=0.5;entryDx=0;entryDy=0;" parent="1" source="23" target="29" edge="1">
                    <mxGeometry relative="1" as="geometry"/>
                </mxCell>
                <mxCell id="43" style="edgeStyle=orthogonalEdgeStyle;sketch=1;html=1;exitX=1;exitY=0.5;exitDx=0;exitDy=0;entryX=0;entryY=0.5;entryDx=0;entryDy=0;" parent="1" source="23" target="38" edge="1">
                    <mxGeometry relative="1" as="geometry"/>
                </mxCell>
                <mxCell id="23" value="3xx" style="rounded=0;whiteSpace=wrap;html=1;fillColor=#dae8fc;strokeColor=#6c8ebf;comic=1;" parent="1" vertex="1">
                    <mxGeometry x="210" y="645" width="50" height="30" as="geometry"/>
                </mxCell>
                <mxCell id="25" style="edgeStyle=orthogonalEdgeStyle;sketch=1;html=1;exitX=1;exitY=0.5;exitDx=0;exitDy=0;entryX=0;entryY=0.5;entryDx=0;entryDy=0;curved=1;" parent="1" source="5" target="23" edge="1">
                    <mxGeometry relative="1" as="geometry">
                        <mxPoint x="170" y="430" as="sourcePoint"/>
                        <mxPoint x="220" y="475" as="targetPoint"/>
                    </mxGeometry>
                </mxCell>
                <mxCell id="26" value="表示客户端&lt;b&gt;请求的资源发生了变动&lt;/b&gt;，需要客户端&lt;b&gt;用新的 URL 重新发送请求&lt;/b&gt;获取资源，也就是&lt;b&gt;重定向&lt;/b&gt;" style="rounded=0;whiteSpace=wrap;html=1;fillColor=#ffe6cc;strokeColor=#d79b00;comic=1;sketch=1;" parent="1" vertex="1">
                    <mxGeometry x="310" y="640" width="280" height="40" as="geometry"/>
                </mxCell>
                <mxCell id="34" style="edgeStyle=orthogonalEdgeStyle;sketch=1;html=1;exitX=1;exitY=0.5;exitDx=0;exitDy=0;entryX=0;entryY=0.5;entryDx=0;entryDy=0;" parent="1" source="29" target="33" edge="1">
                    <mxGeometry relative="1" as="geometry"/>
                </mxCell>
                <mxCell id="29" value="301&lt;br&gt;Moved Permanently" style="rounded=0;whiteSpace=wrap;html=1;fillColor=#d5e8d4;strokeColor=#82b366;comic=1;" parent="1" vertex="1">
                    <mxGeometry x="310" y="700" width="120" height="34" as="geometry"/>
                </mxCell>
                <mxCell id="36" style="edgeStyle=orthogonalEdgeStyle;sketch=1;html=1;exitX=1;exitY=0.5;exitDx=0;exitDy=0;entryX=0;entryY=0.5;entryDx=0;entryDy=0;" parent="1" source="31" target="35" edge="1">
                    <mxGeometry relative="1" as="geometry"/>
                </mxCell>
                <mxCell id="31" value="302 Found" style="rounded=0;whiteSpace=wrap;html=1;fillColor=#d5e8d4;strokeColor=#82b366;comic=1;" parent="1" vertex="1">
                    <mxGeometry x="310" y="750" width="120" height="30" as="geometry"/>
                </mxCell>
                <mxCell id="32" style="edgeStyle=orthogonalEdgeStyle;sketch=1;html=1;entryX=0;entryY=0.5;entryDx=0;entryDy=0;exitX=1;exitY=0.5;exitDx=0;exitDy=0;" parent="1" source="23" target="31" edge="1">
                    <mxGeometry relative="1" as="geometry">
                        <mxPoint x="270" y="640" as="sourcePoint"/>
                        <mxPoint x="320" y="727" as="targetPoint"/>
                    </mxGeometry>
                </mxCell>
                <mxCell id="33" value="&lt;b&gt;永久重定向&lt;/b&gt;，说明请求的&lt;b&gt;资源已经不存在了&lt;/b&gt;" style="rounded=0;whiteSpace=wrap;html=1;fillColor=#ffe6cc;strokeColor=#d79b00;comic=1;sketch=1;" parent="1" vertex="1">
                    <mxGeometry x="460" y="700.5" width="280" height="33" as="geometry"/>
                </mxCell>
                <mxCell id="35" value="&lt;b&gt;临时重定向&lt;/b&gt;，说明请求的&lt;b&gt;资源还在&lt;/b&gt;，但暂时需要&lt;b&gt;用另一个 URL 来访问&lt;/b&gt;" style="rounded=0;whiteSpace=wrap;html=1;fillColor=#ffe6cc;strokeColor=#d79b00;comic=1;sketch=1;" parent="1" vertex="1">
                    <mxGeometry x="460" y="744.25" width="200" height="41.5" as="geometry"/>
                </mxCell>
                <mxCell id="42" style="edgeStyle=orthogonalEdgeStyle;sketch=1;html=1;exitX=1;exitY=0.5;exitDx=0;exitDy=0;entryX=0;entryY=0.5;entryDx=0;entryDy=0;" parent="1" source="38" target="39" edge="1">
                    <mxGeometry relative="1" as="geometry"/>
                </mxCell>
                <mxCell id="38" value="304 Not Modified" style="rounded=0;whiteSpace=wrap;html=1;fillColor=#d5e8d4;strokeColor=#82b366;comic=1;" parent="1" vertex="1">
                    <mxGeometry x="310" y="800" width="120" height="34" as="geometry"/>
                </mxCell>
                <mxCell id="41" style="edgeStyle=orthogonalEdgeStyle;sketch=1;html=1;exitX=1;exitY=0.5;exitDx=0;exitDy=0;entryX=0;entryY=0.5;entryDx=0;entryDy=0;" parent="1" source="39" target="40" edge="1">
                    <mxGeometry relative="1" as="geometry"/>
                </mxCell>
                <mxCell id="39" value="表示&lt;b&gt;资源未修改&lt;/b&gt;，重定向已存在的&lt;b&gt;缓冲文件&lt;/b&gt;，也称&lt;b&gt;缓存重定向&lt;/b&gt;" style="rounded=0;whiteSpace=wrap;html=1;fillColor=#ffe6cc;strokeColor=#d79b00;comic=1;sketch=1;" parent="1" vertex="1">
                    <mxGeometry x="460" y="796.25" width="200" height="41.5" as="geometry"/>
                </mxCell>
                <mxCell id="40" value="告诉客户端可以继续使用缓存资源，用于缓存控制" style="rounded=0;whiteSpace=wrap;html=1;fillColor=#dae8fc;strokeColor=#6c8ebf;comic=1;sketch=1;" parent="1" vertex="1">
                    <mxGeometry x="680" y="803" width="290" height="28" as="geometry"/>
                </mxCell>
                <mxCell id="48" style="edgeStyle=orthogonalEdgeStyle;curved=1;sketch=1;html=1;exitX=1;exitY=0.5;exitDx=0;exitDy=0;entryX=0;entryY=0.5;entryDx=0;entryDy=0;" parent="1" source="44" target="47" edge="1">
                    <mxGeometry relative="1" as="geometry"/>
                </mxCell>
                <mxCell id="50" style="edgeStyle=orthogonalEdgeStyle;sketch=1;html=1;exitX=1;exitY=0.5;exitDx=0;exitDy=0;entryX=0;entryY=0.5;entryDx=0;entryDy=0;" parent="1" source="44" target="49" edge="1">
                    <mxGeometry relative="1" as="geometry"/>
                </mxCell>
                <mxCell id="59" style="edgeStyle=orthogonalEdgeStyle;sketch=1;html=1;exitX=1;exitY=0.5;exitDx=0;exitDy=0;entryX=0;entryY=0.5;entryDx=0;entryDy=0;elbow=vertical;" parent="1" source="44" target="51" edge="1">
                    <mxGeometry relative="1" as="geometry"/>
                </mxCell>
                <mxCell id="60" style="edgeStyle=orthogonalEdgeStyle;sketch=1;html=1;exitX=1;exitY=0.5;exitDx=0;exitDy=0;entryX=0;entryY=0.5;entryDx=0;entryDy=0;elbow=vertical;" parent="1" source="44" target="52" edge="1">
                    <mxGeometry relative="1" as="geometry"/>
                </mxCell>
                <mxCell id="44" value="4xx" style="rounded=0;whiteSpace=wrap;html=1;fillColor=#dae8fc;strokeColor=#6c8ebf;comic=1;" parent="1" vertex="1">
                    <mxGeometry x="210" y="850" width="50" height="30" as="geometry"/>
                </mxCell>
                <mxCell id="47" value="客户端发送的报文有误，&lt;b&gt;服务器无法处理&lt;/b&gt;，也就是&lt;b&gt;错误码&lt;/b&gt;的含义" style="rounded=0;whiteSpace=wrap;html=1;fillColor=#ffe6cc;strokeColor=#d79b00;comic=1;sketch=1;" parent="1" vertex="1">
                    <mxGeometry x="310" y="850" width="350" height="30" as="geometry"/>
                </mxCell>
                <mxCell id="54" style="sketch=1;html=1;exitX=1;exitY=0.5;exitDx=0;exitDy=0;entryX=0;entryY=0.5;entryDx=0;entryDy=0;elbow=vertical;" parent="1" source="49" target="53" edge="1">
                    <mxGeometry relative="1" as="geometry"/>
                </mxCell>
                <mxCell id="49" value="400&lt;br&gt;Bad Request" style="rounded=0;whiteSpace=wrap;html=1;fillColor=#d5e8d4;strokeColor=#82b366;comic=1;" parent="1" vertex="1">
                    <mxGeometry x="310" y="890" width="80" height="34" as="geometry"/>
                </mxCell>
                <mxCell id="56" style="edgeStyle=none;sketch=1;html=1;exitX=1;exitY=0.5;exitDx=0;exitDy=0;entryX=0;entryY=0.5;entryDx=0;entryDy=0;elbow=vertical;" parent="1" source="51" target="55" edge="1">
                    <mxGeometry relative="1" as="geometry"/>
                </mxCell>
                <mxCell id="51" value="403&lt;br&gt;Forbidden" style="rounded=0;whiteSpace=wrap;html=1;fillColor=#d5e8d4;strokeColor=#82b366;comic=1;" parent="1" vertex="1">
                    <mxGeometry x="310" y="940" width="80" height="34" as="geometry"/>
                </mxCell>
                <mxCell id="58" style="edgeStyle=none;sketch=1;html=1;exitX=1;exitY=0.5;exitDx=0;exitDy=0;entryX=0;entryY=0.5;entryDx=0;entryDy=0;elbow=vertical;" parent="1" source="52" target="57" edge="1">
                    <mxGeometry relative="1" as="geometry"/>
                </mxCell>
                <mxCell id="52" value="404&lt;br&gt;Not Found" style="rounded=0;whiteSpace=wrap;html=1;fillColor=#d5e8d4;strokeColor=#82b366;comic=1;" parent="1" vertex="1">
                    <mxGeometry x="310" y="990" width="80" height="34" as="geometry"/>
                </mxCell>
                <mxCell id="53" value="请求的报文有错误，&lt;b&gt;笼统通用&lt;/b&gt;的错误码" style="rounded=0;whiteSpace=wrap;html=1;fillColor=#ffe6cc;strokeColor=#d79b00;comic=1;sketch=1;" parent="1" vertex="1">
                    <mxGeometry x="425" y="892" width="225" height="30" as="geometry"/>
                </mxCell>
                <mxCell id="55" value="服务器禁止访问资源" style="rounded=0;whiteSpace=wrap;html=1;fillColor=#ffe6cc;strokeColor=#d79b00;comic=1;sketch=1;" parent="1" vertex="1">
                    <mxGeometry x="425" y="942" width="135" height="30" as="geometry"/>
                </mxCell>
                <mxCell id="57" value="请求的资源在服务器上不存在或未找到" style="rounded=0;whiteSpace=wrap;html=1;fillColor=#ffe6cc;strokeColor=#d79b00;comic=1;sketch=1;" parent="1" vertex="1">
                    <mxGeometry x="425" y="992" width="215" height="30" as="geometry"/>
                </mxCell>
                <mxCell id="63" style="edgeStyle=orthogonalEdgeStyle;sketch=1;html=1;exitX=1;exitY=0.5;exitDx=0;exitDy=0;entryX=0;entryY=0.5;entryDx=0;entryDy=0;elbow=vertical;" parent="1" source="61" target="67" edge="1">
                    <mxGeometry relative="1" as="geometry">
                        <mxPoint x="310" y="1070" as="targetPoint"/>
                    </mxGeometry>
                </mxCell>
                <mxCell id="66" style="edgeStyle=orthogonalEdgeStyle;sketch=1;html=1;exitX=1;exitY=0.5;exitDx=0;exitDy=0;entryX=0;entryY=0.5;entryDx=0;entryDy=0;elbow=vertical;" parent="1" source="61" target="65" edge="1">
                    <mxGeometry relative="1" as="geometry"/>
                </mxCell>
                <mxCell id="73" style="edgeStyle=orthogonalEdgeStyle;sketch=1;html=1;exitX=1;exitY=0.5;exitDx=0;exitDy=0;entryX=0;entryY=0.5;entryDx=0;entryDy=0;elbow=vertical;" parent="1" source="61" target="70" edge="1">
                    <mxGeometry relative="1" as="geometry"/>
                </mxCell>
                <mxCell id="77" style="edgeStyle=orthogonalEdgeStyle;sketch=1;html=1;exitX=1;exitY=0.5;exitDx=0;exitDy=0;entryX=0;entryY=0.5;entryDx=0;entryDy=0;elbow=vertical;" parent="1" source="61" target="74" edge="1">
                    <mxGeometry relative="1" as="geometry"/>
                </mxCell>
                <mxCell id="79" style="edgeStyle=orthogonalEdgeStyle;sketch=1;html=1;exitX=1;exitY=0.5;exitDx=0;exitDy=0;entryX=0;entryY=0.5;entryDx=0;entryDy=0;elbow=vertical;" parent="1" source="61" target="78" edge="1">
                    <mxGeometry relative="1" as="geometry"/>
                </mxCell>
                <mxCell id="61" value="5xx" style="rounded=0;whiteSpace=wrap;html=1;fillColor=#dae8fc;strokeColor=#6c8ebf;comic=1;" parent="1" vertex="1">
                    <mxGeometry x="210" y="1055" width="50" height="30" as="geometry"/>
                </mxCell>
                <mxCell id="69" style="edgeStyle=orthogonalEdgeStyle;sketch=1;html=1;exitX=1;exitY=0.5;exitDx=0;exitDy=0;entryX=0;entryY=0.5;entryDx=0;entryDy=0;elbow=vertical;" parent="1" source="65" target="68" edge="1">
                    <mxGeometry relative="1" as="geometry"/>
                </mxCell>
                <mxCell id="65" value="500&lt;br&gt;Internal Server Error" style="rounded=0;whiteSpace=wrap;html=1;fillColor=#d5e8d4;strokeColor=#82b366;comic=1;" parent="1" vertex="1">
                    <mxGeometry x="310" y="1100" width="120" height="34" as="geometry"/>
                </mxCell>
                <mxCell id="67" value="客户端&lt;b&gt;请求报文正确&lt;/b&gt;，但是&lt;b&gt;服务器处理时内部发生了错误&lt;/b&gt;，属于服务器端的错误码" style="rounded=0;whiteSpace=wrap;html=1;fillColor=#ffe6cc;strokeColor=#d79b00;comic=1;sketch=1;" parent="1" vertex="1">
                    <mxGeometry x="310" y="1055" width="450" height="30" as="geometry"/>
                </mxCell>
                <mxCell id="68" value="笼统通用的错误码" style="rounded=0;whiteSpace=wrap;html=1;fillColor=#ffe6cc;strokeColor=#d79b00;comic=1;sketch=1;" parent="1" vertex="1">
                    <mxGeometry x="470" y="1102" width="150" height="30" as="geometry"/>
                </mxCell>
                <mxCell id="72" style="edgeStyle=orthogonalEdgeStyle;sketch=1;html=1;exitX=1;exitY=0.5;exitDx=0;exitDy=0;entryX=0;entryY=0.5;entryDx=0;entryDy=0;elbow=vertical;" parent="1" source="70" target="71" edge="1">
                    <mxGeometry relative="1" as="geometry"/>
                </mxCell>
                <mxCell id="70" value="501&lt;br&gt;Not Implemented" style="rounded=0;whiteSpace=wrap;html=1;fillColor=#d5e8d4;strokeColor=#82b366;comic=1;" parent="1" vertex="1">
                    <mxGeometry x="310" y="1150" width="120" height="34" as="geometry"/>
                </mxCell>
                <mxCell id="71" value="请求的功能还不支持，类似“即将开业，敬请期待”" style="rounded=0;whiteSpace=wrap;html=1;fillColor=#ffe6cc;strokeColor=#d79b00;comic=1;sketch=1;" parent="1" vertex="1">
                    <mxGeometry x="470" y="1152" width="280" height="30" as="geometry"/>
                </mxCell>
                <mxCell id="76" style="edgeStyle=orthogonalEdgeStyle;sketch=1;html=1;exitX=1;exitY=0.5;exitDx=0;exitDy=0;entryX=0;entryY=0.5;entryDx=0;entryDy=0;elbow=vertical;" parent="1" source="74" target="75" edge="1">
                    <mxGeometry relative="1" as="geometry"/>
                </mxCell>
                <mxCell id="74" value="502&lt;br&gt;Bad Gateway" style="rounded=0;whiteSpace=wrap;html=1;fillColor=#d5e8d4;strokeColor=#82b366;comic=1;" parent="1" vertex="1">
                    <mxGeometry x="310" y="1200" width="120" height="34" as="geometry"/>
                </mxCell>
                <mxCell id="81" style="edgeStyle=orthogonalEdgeStyle;sketch=1;html=1;exitX=1;exitY=0.5;exitDx=0;exitDy=0;entryX=0;entryY=0.5;entryDx=0;entryDy=0;elbow=vertical;" parent="1" source="75" target="80" edge="1">
                    <mxGeometry relative="1" as="geometry"/>
                </mxCell>
                <mxCell id="75" value="通常是服务器&lt;b&gt;作为网关或代理时返回的错误码&lt;/b&gt;，表示服务器自身工作正常，访问后端服务器发生了错误" style="rounded=0;whiteSpace=wrap;html=1;fillColor=#ffe6cc;strokeColor=#d79b00;comic=1;sketch=1;" parent="1" vertex="1">
                    <mxGeometry x="470" y="1193" width="280" height="48" as="geometry"/>
                </mxCell>
                <mxCell id="83" style="edgeStyle=orthogonalEdgeStyle;sketch=1;html=1;exitX=1;exitY=0.5;exitDx=0;exitDy=0;entryX=0;entryY=0.5;entryDx=0;entryDy=0;elbow=vertical;" parent="1" source="78" target="82" edge="1">
                    <mxGeometry relative="1" as="geometry"/>
                </mxCell>
                <mxCell id="78" value="503&lt;br&gt;Service Unavailable" style="rounded=0;whiteSpace=wrap;html=1;fillColor=#d5e8d4;strokeColor=#82b366;comic=1;" parent="1" vertex="1">
                    <mxGeometry x="310" y="1250" width="120" height="34" as="geometry"/>
                </mxCell>
                <mxCell id="80" value="比如网关没问题，但调用微服务时出错" style="rounded=0;whiteSpace=wrap;html=1;fillColor=#dae8fc;strokeColor=#6c8ebf;comic=1;sketch=1;" parent="1" vertex="1">
                    <mxGeometry x="770" y="1202" width="230" height="30" as="geometry"/>
                </mxCell>
                <mxCell id="82" value="表示服务器当前很忙，暂时无法响应客户端" style="rounded=0;whiteSpace=wrap;html=1;fillColor=#ffe6cc;strokeColor=#d79b00;comic=1;sketch=1;" parent="1" vertex="1">
                    <mxGeometry x="470" y="1252" width="280" height="30" as="geometry"/>
                </mxCell>
                <mxCell id="84" value="表示一切正常" style="rounded=0;whiteSpace=wrap;html=1;fillColor=#ffe6cc;strokeColor=#d79b00;comic=1;sketch=1;" parent="1" vertex="1">
                    <mxGeometry x="442.5" y="500" width="117.5" height="30" as="geometry"/>
                </mxCell>
                <mxCell id="86" value="与 200 OK 基本相同，但&lt;b&gt;响应头没有 body 数据&lt;/b&gt;" style="rounded=0;whiteSpace=wrap;html=1;fillColor=#ffe6cc;strokeColor=#d79b00;comic=1;sketch=1;" parent="1" vertex="1">
                    <mxGeometry x="442.5" y="542" width="267.5" height="30" as="geometry"/>
                </mxCell>
                <mxCell id="88" value="应用于 &lt;b&gt;HTTP 分块下载或断点续传&lt;/b&gt;，表示响应返回的 body 数据&lt;b&gt;并不是资源的全部，而是其中的一部分&lt;/b&gt;，也是服务器处理成功的状态" style="rounded=0;whiteSpace=wrap;html=1;fillColor=#ffe6cc;strokeColor=#d79b00;comic=1;sketch=1;" parent="1" vertex="1">
                    <mxGeometry x="442.5" y="579.75" width="397.5" height="43.5" as="geometry"/>
                </mxCell>
                <mxCell id="93" style="edgeStyle=orthogonalEdgeStyle;curved=1;sketch=1;html=1;exitX=1;exitY=0.5;exitDx=0;exitDy=0;entryX=0;entryY=0.5;entryDx=0;entryDy=0;elbow=vertical;" parent="1" source="90" target="92" edge="1">
                    <mxGeometry relative="1" as="geometry"/>
                </mxCell>
                <mxCell id="101" style="edgeStyle=orthogonalEdgeStyle;curved=1;sketch=1;html=1;exitX=1;exitY=0.5;exitDx=0;exitDy=0;entryX=0;entryY=0.5;entryDx=0;entryDy=0;elbow=vertical;" parent="1" source="90" target="98" edge="1">
                    <mxGeometry relative="1" as="geometry"/>
                </mxCell>
                <mxCell id="105" style="edgeStyle=orthogonalEdgeStyle;curved=1;sketch=1;html=1;exitX=1;exitY=0.5;exitDx=0;exitDy=0;entryX=0;entryY=0.5;entryDx=0;entryDy=0;elbow=vertical;" parent="1" source="90" target="104" edge="1">
                    <mxGeometry relative="1" as="geometry"/>
                </mxCell>
                <mxCell id="113" style="edgeStyle=orthogonalEdgeStyle;curved=1;sketch=1;html=1;exitX=1;exitY=0.5;exitDx=0;exitDy=0;entryX=0;entryY=0.5;entryDx=0;entryDy=0;elbow=vertical;" edge="1" parent="1" source="90" target="112">
                    <mxGeometry relative="1" as="geometry"/>
                </mxCell>
                <mxCell id="121" style="edgeStyle=orthogonalEdgeStyle;curved=1;sketch=1;html=1;exitX=1;exitY=0.5;exitDx=0;exitDy=0;entryX=0;entryY=0.5;entryDx=0;entryDy=0;elbow=vertical;" edge="1" parent="1" source="90" target="120">
                    <mxGeometry relative="1" as="geometry"/>
                </mxCell>
                <mxCell id="90" value="HTTP 常见字段" style="rounded=0;whiteSpace=wrap;html=1;fillColor=#ffe6cc;strokeColor=#d79b00;comic=1;" parent="1" vertex="1">
                    <mxGeometry x="40" y="1475.76" width="120" height="40" as="geometry"/>
                </mxCell>
                <mxCell id="95" style="edgeStyle=orthogonalEdgeStyle;curved=1;sketch=1;html=1;exitX=1;exitY=0.5;exitDx=0;exitDy=0;entryX=0;entryY=0.5;entryDx=0;entryDy=0;elbow=vertical;" parent="1" source="92" target="94" edge="1">
                    <mxGeometry relative="1" as="geometry"/>
                </mxCell>
                <mxCell id="92" value="Host" style="rounded=0;whiteSpace=wrap;html=1;fillColor=#dae8fc;strokeColor=#6c8ebf;comic=1;" parent="1" vertex="1">
                    <mxGeometry x="220" y="1330" width="80" height="30" as="geometry"/>
                </mxCell>
                <mxCell id="97" style="edgeStyle=orthogonalEdgeStyle;curved=1;sketch=1;html=1;exitX=1;exitY=0.5;exitDx=0;exitDy=0;entryX=0;entryY=0.5;entryDx=0;entryDy=0;elbow=vertical;" parent="1" source="94" target="96" edge="1">
                    <mxGeometry relative="1" as="geometry"/>
                </mxCell>
                <mxCell id="94" value="客户端发送请求时，用来&lt;b&gt;指定服务器的域名&lt;/b&gt;" style="rounded=0;whiteSpace=wrap;html=1;fillColor=#ffe6cc;strokeColor=#d79b00;comic=1;sketch=1;" parent="1" vertex="1">
                    <mxGeometry x="362.5" y="1330" width="260" height="30" as="geometry"/>
                </mxCell>
                <mxCell id="96" value="" style="shape=image;imageAspect=0;aspect=fixed;verticalLabelPosition=bottom;verticalAlign=top;comic=1;sketch=1;image=https://cdn.xiaolincoding.com/gh/xiaolincoder/ImageHost/%E8%AE%A1%E7%AE%97%E6%9C%BA%E7%BD%91%E7%BB%9C/HTTP/7-HOST%E5%AD%97%E6%AE%B5.png;imageBorder=default;" parent="1" vertex="1">
                    <mxGeometry x="760" y="1263.0700000000002" width="300" height="163.85" as="geometry"/>
                </mxCell>
                <mxCell id="100" style="sketch=1;html=1;exitX=1;exitY=0.5;exitDx=0;exitDy=0;entryX=0;entryY=0.5;entryDx=0;entryDy=0;elbow=vertical;" parent="1" source="98" target="99" edge="1">
                    <mxGeometry relative="1" as="geometry"/>
                </mxCell>
                <mxCell id="98" value="Content-Length" style="rounded=0;whiteSpace=wrap;html=1;fillColor=#dae8fc;strokeColor=#6c8ebf;comic=1;" parent="1" vertex="1">
                    <mxGeometry x="220" y="1480.76" width="100" height="30" as="geometry"/>
                </mxCell>
                <mxCell id="103" style="sketch=1;html=1;exitX=1;exitY=0.5;exitDx=0;exitDy=0;entryX=0;entryY=0.5;entryDx=0;entryDy=0;elbow=vertical;" parent="1" source="99" target="102" edge="1">
                    <mxGeometry relative="1" as="geometry"/>
                </mxCell>
                <mxCell id="99" value="服务器在&lt;b&gt;返回数据时&lt;/b&gt;，会有该字段，表明本次&lt;b&gt;回应的数据长度&lt;/b&gt;" style="rounded=0;whiteSpace=wrap;html=1;fillColor=#ffe6cc;strokeColor=#d79b00;comic=1;sketch=1;" parent="1" vertex="1">
                    <mxGeometry x="367.5" y="1474.22" width="250" height="43.08" as="geometry"/>
                </mxCell>
                <mxCell id="102" value="" style="shape=image;imageAspect=0;aspect=fixed;verticalLabelPosition=bottom;verticalAlign=top;comic=1;sketch=1;image=https://cdn.xiaolincoding.com/gh/xiaolincoder/ImageHost/%E8%AE%A1%E7%AE%97%E6%9C%BA%E7%BD%91%E7%BB%9C/HTTP/8-content-length%E5%AD%97%E6%AE%B5.png;imageBorder=default;" parent="1" vertex="1">
                    <mxGeometry x="670" y="1440" width="222" height="111.52" as="geometry"/>
                </mxCell>
                <mxCell id="107" style="sketch=1;html=1;exitX=1;exitY=0.5;exitDx=0;exitDy=0;entryX=0;entryY=0.5;entryDx=0;entryDy=0;elbow=vertical;" parent="1" source="104" target="106" edge="1">
                    <mxGeometry relative="1" as="geometry"/>
                </mxCell>
                <mxCell id="104" value="Connection" style="rounded=0;whiteSpace=wrap;html=1;fillColor=#dae8fc;strokeColor=#6c8ebf;comic=1;" parent="1" vertex="1">
                    <mxGeometry x="220" y="1566.54" width="100" height="30" as="geometry"/>
                </mxCell>
                <mxCell id="109" style="edgeStyle=orthogonalEdgeStyle;curved=1;sketch=1;html=1;exitX=1;exitY=0.5;exitDx=0;exitDy=0;entryX=0;entryY=0.5;entryDx=0;entryDy=0;elbow=vertical;" edge="1" parent="1" source="106" target="108">
                    <mxGeometry relative="1" as="geometry"/>
                </mxCell>
                <mxCell id="106" value="最常用于&lt;b&gt;客户端要求服务器使用 TCP 持久连接&lt;/b&gt;，以便其他请求复用" style="rounded=0;whiteSpace=wrap;html=1;fillColor=#ffe6cc;strokeColor=#d79b00;comic=1;sketch=1;" parent="1" vertex="1">
                    <mxGeometry x="362.5" y="1560" width="250" height="43.08" as="geometry"/>
                </mxCell>
                <mxCell id="111" style="edgeStyle=orthogonalEdgeStyle;curved=1;sketch=1;html=1;exitX=1;exitY=0.5;exitDx=0;exitDy=0;entryX=0;entryY=0.5;entryDx=0;entryDy=0;elbow=vertical;" edge="1" parent="1" source="108" target="110">
                    <mxGeometry relative="1" as="geometry"/>
                </mxCell>
                <mxCell id="108" value="&lt;b&gt;HTTP/1.1&lt;/b&gt; 版本的&lt;b&gt;默认连接都是持久连接&lt;/b&gt;，但为了&lt;b&gt;兼容老版本的 HTTP&lt;/b&gt;，需要指定 Connection 首部字段的值为 Keep-Alive" style="rounded=0;whiteSpace=wrap;html=1;fillColor=#dae8fc;strokeColor=#6c8ebf;comic=1;sketch=1;" vertex="1" parent="1">
                    <mxGeometry x="656" y="1560" width="334" height="43.08" as="geometry"/>
                </mxCell>
                <mxCell id="110" value="" style="shape=image;imageAspect=0;aspect=fixed;verticalLabelPosition=bottom;verticalAlign=top;comic=1;sketch=1;image=https://cdn.xiaolincoding.com/gh/xiaolincoder/ImageHost/%E8%AE%A1%E7%AE%97%E6%9C%BA%E7%BD%91%E7%BB%9C/HTTP/9-connection%E5%AD%97%E6%AE%B5.png;imageBorder=default;" vertex="1" parent="1">
                    <mxGeometry x="1040" y="1517.3" width="242" height="128.56" as="geometry"/>
                </mxCell>
                <mxCell id="115" style="sketch=1;html=1;exitX=1;exitY=0.5;exitDx=0;exitDy=0;entryX=0;entryY=0.5;entryDx=0;entryDy=0;elbow=vertical;" edge="1" parent="1" source="112" target="114">
                    <mxGeometry relative="1" as="geometry"/>
                </mxCell>
                <mxCell id="112" value="Content-Type" style="rounded=0;whiteSpace=wrap;html=1;fillColor=#dae8fc;strokeColor=#6c8ebf;comic=1;" vertex="1" parent="1">
                    <mxGeometry x="220" y="1640" width="100" height="30" as="geometry"/>
                </mxCell>
                <mxCell id="117" style="edgeStyle=orthogonalEdgeStyle;curved=1;sketch=1;html=1;exitX=1;exitY=0.5;exitDx=0;exitDy=0;entryX=0;entryY=0.5;entryDx=0;entryDy=0;elbow=vertical;" edge="1" parent="1" source="114" target="116">
                    <mxGeometry relative="1" as="geometry"/>
                </mxCell>
                <mxCell id="119" style="edgeStyle=orthogonalEdgeStyle;curved=1;sketch=1;html=1;exitX=0.5;exitY=1;exitDx=0;exitDy=0;entryX=0.5;entryY=0;entryDx=0;entryDy=0;elbow=vertical;" edge="1" parent="1" source="114" target="118">
                    <mxGeometry relative="1" as="geometry"/>
                </mxCell>
                <mxCell id="114" value="&lt;b&gt;服务器回应&lt;/b&gt;时，告诉客户端，&lt;b&gt;本次数据是什么格式&lt;/b&gt;" style="rounded=0;whiteSpace=wrap;html=1;fillColor=#ffe6cc;strokeColor=#d79b00;comic=1;sketch=1;" vertex="1" parent="1">
                    <mxGeometry x="362.5" y="1641.73" width="277.5" height="26.54" as="geometry"/>
                </mxCell>
                <mxCell id="116" value="" style="shape=image;imageAspect=0;aspect=fixed;verticalLabelPosition=bottom;verticalAlign=top;comic=1;sketch=1;image=https://cdn.xiaolincoding.com/gh/xiaolincoder/ImageHost/%E8%AE%A1%E7%AE%97%E6%9C%BA%E7%BD%91%E7%BB%9C/HTTP/10-content-type%E5%AD%97%E6%AE%B5.png;imageBorder=default;" vertex="1" parent="1">
                    <mxGeometry x="700.86" y="1610" width="299.14" height="134.04" as="geometry"/>
                </mxCell>
                <mxCell id="118" value="&lt;b&gt;客户端请求&lt;/b&gt;的时候，可以使用&lt;b&gt; Accept 字段&lt;/b&gt;声明自己可以接受哪些数据格式。" style="rounded=0;whiteSpace=wrap;html=1;fillColor=#dae8fc;strokeColor=#6c8ebf;comic=1;sketch=1;align=left;" vertex="1" parent="1">
                    <mxGeometry x="362.5" y="1690" width="277.5" height="40" as="geometry"/>
                </mxCell>
                <mxCell id="123" style="edgeStyle=orthogonalEdgeStyle;curved=1;sketch=1;html=1;exitX=1;exitY=0.5;exitDx=0;exitDy=0;entryX=0;entryY=0.5;entryDx=0;entryDy=0;elbow=vertical;" edge="1" parent="1" source="120" target="122">
                    <mxGeometry relative="1" as="geometry"/>
                </mxCell>
                <mxCell id="120" value="Content-Encoding" style="rounded=0;whiteSpace=wrap;html=1;fillColor=#dae8fc;strokeColor=#6c8ebf;comic=1;" vertex="1" parent="1">
                    <mxGeometry x="220" y="1760" width="110" height="30" as="geometry"/>
                </mxCell>
                <mxCell id="125" style="edgeStyle=orthogonalEdgeStyle;curved=1;sketch=1;html=1;exitX=1;exitY=0.5;exitDx=0;exitDy=0;entryX=0;entryY=0.5;entryDx=0;entryDy=0;elbow=vertical;" edge="1" parent="1" source="122" target="124">
                    <mxGeometry relative="1" as="geometry"/>
                </mxCell>
                <mxCell id="127" style="edgeStyle=none;sketch=1;html=1;exitX=0.5;exitY=1;exitDx=0;exitDy=0;entryX=0.5;entryY=0;entryDx=0;entryDy=0;elbow=vertical;" edge="1" parent="1" source="122" target="126">
                    <mxGeometry relative="1" as="geometry"/>
                </mxCell>
                <mxCell id="122" value="表示服务器&lt;b&gt;返回的数据&lt;/b&gt;使用了什么&lt;b&gt;压缩格式&lt;/b&gt;" style="rounded=0;whiteSpace=wrap;html=1;fillColor=#ffe6cc;strokeColor=#d79b00;comic=1;sketch=1;" vertex="1" parent="1">
                    <mxGeometry x="362.5" y="1761.73" width="277.5" height="26.54" as="geometry"/>
                </mxCell>
                <mxCell id="124" value="" style="shape=image;imageAspect=0;aspect=fixed;verticalLabelPosition=bottom;verticalAlign=top;comic=1;sketch=1;image=https://cdn.xiaolincoding.com/gh/xiaolincoder/ImageHost/%E8%AE%A1%E7%AE%97%E6%9C%BA%E7%BD%91%E7%BB%9C/HTTP/11-content-encoding%E5%AD%97%E6%AE%B5.png;imageBorder=default;" vertex="1" parent="1">
                    <mxGeometry x="700.86" y="1754" width="290" height="129.38" as="geometry"/>
                </mxCell>
                <mxCell id="126" value="&lt;b&gt;客户端请求&lt;/b&gt;的时候，可以使用&lt;b&gt; Accept-Encoding 字段&lt;/b&gt;声明自己可以接受哪些压缩方法。" style="rounded=0;whiteSpace=wrap;html=1;fillColor=#dae8fc;strokeColor=#6c8ebf;comic=1;sketch=1;align=left;" vertex="1" parent="1">
                    <mxGeometry x="357.5" y="1810" width="287.5" height="40" as="geometry"/>
                </mxCell>
                <mxCell id="130" style="edgeStyle=none;sketch=1;html=1;exitX=1;exitY=0.5;exitDx=0;exitDy=0;entryX=0;entryY=0.5;entryDx=0;entryDy=0;elbow=vertical;" edge="1" parent="1" source="128" target="129">
                    <mxGeometry relative="1" as="geometry"/>
                </mxCell>
                <mxCell id="135" style="edgeStyle=none;sketch=1;html=1;exitX=1;exitY=0.5;exitDx=0;exitDy=0;entryX=0;entryY=0.5;entryDx=0;entryDy=0;elbow=vertical;" edge="1" parent="1" source="128" target="134">
                    <mxGeometry relative="1" as="geometry"/>
                </mxCell>
                <mxCell id="128" value="HTTP 缓存技术" style="rounded=0;whiteSpace=wrap;html=1;fillColor=#ffe6cc;strokeColor=#d79b00;comic=1;" vertex="1" parent="1">
                    <mxGeometry x="40" y="2010" width="120" height="40" as="geometry"/>
                </mxCell>
                <mxCell id="133" style="edgeStyle=none;sketch=1;html=1;exitX=1;exitY=0.5;exitDx=0;exitDy=0;entryX=0;entryY=0.5;entryDx=0;entryDy=0;elbow=vertical;" edge="1" parent="1" source="129" target="131">
                    <mxGeometry relative="1" as="geometry"/>
                </mxCell>
                <mxCell id="129" value="作用" style="rounded=0;whiteSpace=wrap;html=1;fillColor=#b0e3e6;strokeColor=#0e8088;comic=1;" vertex="1" parent="1">
                    <mxGeometry x="220" y="1905" width="60" height="30" as="geometry"/>
                </mxCell>
                <mxCell id="131" value="对于一些具有&lt;b&gt;重复性的 HTTP 请求&lt;/b&gt;，比如每次请求得到的数据都一样的，我们可以把这对「请求-响应」的数据都缓存在本地，那么下次就直接读取本地的数据，不必在通过网络获取服务器的响应了" style="rounded=0;whiteSpace=wrap;html=1;fillColor=#ffe6cc;strokeColor=#d79b00;comic=1;sketch=1;" vertex="1" parent="1">
                    <mxGeometry x="335.86" y="1890" width="365" height="60" as="geometry"/>
                </mxCell>
                <mxCell id="137" style="edgeStyle=none;sketch=1;html=1;exitX=1;exitY=0.5;exitDx=0;exitDy=0;entryX=0;entryY=0.5;entryDx=0;entryDy=0;elbow=vertical;" edge="1" parent="1" source="134" target="136">
                    <mxGeometry relative="1" as="geometry"/>
                </mxCell>
                <mxCell id="134" value="实现方式" style="rounded=0;whiteSpace=wrap;html=1;fillColor=#d5e8d4;strokeColor=#82b366;comic=1;" vertex="1" parent="1">
                    <mxGeometry x="205" y="2130" width="75" height="30" as="geometry"/>
                </mxCell>
                <mxCell id="139" style="edgeStyle=none;sketch=1;html=1;exitX=1;exitY=0.5;exitDx=0;exitDy=0;entryX=0;entryY=0.5;entryDx=0;entryDy=0;elbow=vertical;" edge="1" parent="1" source="136" target="138">
                    <mxGeometry relative="1" as="geometry"/>
                </mxCell>
                <mxCell id="141" style="edgeStyle=none;sketch=1;html=1;exitX=1;exitY=0.5;exitDx=0;exitDy=0;entryX=0;entryY=0.5;entryDx=0;entryDy=0;elbow=vertical;" edge="1" parent="1" source="136" target="140">
                    <mxGeometry relative="1" as="geometry"/>
                </mxCell>
                <mxCell id="145" style="edgeStyle=none;sketch=1;html=1;exitX=1;exitY=0.5;exitDx=0;exitDy=0;entryX=0;entryY=0.5;entryDx=0;entryDy=0;elbow=vertical;" edge="1" parent="1" source="136" target="144">
                    <mxGeometry relative="1" as="geometry"/>
                </mxCell>
                <mxCell id="136" value="强制缓存" style="rounded=0;whiteSpace=wrap;html=1;fillColor=#dae8fc;strokeColor=#6c8ebf;comic=1;" vertex="1" parent="1">
                    <mxGeometry x="325" y="2030" width="75" height="30" as="geometry"/>
                </mxCell>
                <mxCell id="138" value="只要&lt;b&gt;浏览器判断&lt;/b&gt;缓存没有过期，则直接使用浏览器的本地缓存，决定是否使用缓存的&lt;b&gt;主动性在于浏览器这边&lt;/b&gt;" style="rounded=0;whiteSpace=wrap;html=1;fillColor=#ffe6cc;strokeColor=#d79b00;comic=1;sketch=1;align=left;" vertex="1" parent="1">
                    <mxGeometry x="430" y="1970" width="365" height="40" as="geometry"/>
                </mxCell>
                <mxCell id="143" style="edgeStyle=none;sketch=1;html=1;exitX=1;exitY=0.5;exitDx=0;exitDy=0;entryX=0;entryY=0.5;entryDx=0;entryDy=0;elbow=vertical;" edge="1" parent="1" source="140" target="142">
                    <mxGeometry relative="1" as="geometry"/>
                </mxCell>
                <mxCell id="140" value="响应头字段" style="rounded=0;whiteSpace=wrap;html=1;fillColor=#e1d5e7;strokeColor=#9673a6;comic=1;" vertex="1" parent="1">
                    <mxGeometry x="430" y="2030" width="75" height="30" as="geometry"/>
                </mxCell>
                <mxCell id="142" value="&lt;div&gt;Cache-Control：是一个相对时间&lt;/div&gt;&lt;div&gt;Expires：是一个绝对时间&lt;/div&gt;" style="rounded=0;whiteSpace=wrap;html=1;fillColor=#ffe6cc;strokeColor=#d79b00;comic=1;sketch=1;align=left;" vertex="1" parent="1">
                    <mxGeometry x="530" y="2025" width="190" height="40" as="geometry"/>
                </mxCell>
                <mxCell id="147" style="edgeStyle=none;sketch=1;html=1;exitX=1;exitY=0.5;exitDx=0;exitDy=0;entryX=0;entryY=0.5;entryDx=0;entryDy=0;elbow=vertical;" edge="1" parent="1" source="144" target="146">
                    <mxGeometry relative="1" as="geometry"/>
                </mxCell>
                <mxCell id="144" value="流程" style="rounded=0;whiteSpace=wrap;html=1;fillColor=#e1d5e7;strokeColor=#9673a6;comic=1;" vertex="1" parent="1">
                    <mxGeometry x="442.5" y="2115.5" width="50" height="30" as="geometry"/>
                </mxCell>
                <mxCell id="146" value="" style="shape=image;imageAspect=0;aspect=fixed;verticalLabelPosition=bottom;verticalAlign=top;comic=1;sketch=1;image=https://codereaper-image-bed.oss-cn-shenzhen.aliyuncs.com/img/image-20220823153137876.png;imageBorder=default;" vertex="1" parent="1">
                    <mxGeometry x="530" y="2080" width="520" height="101" as="geometry"/>
                </mxCell>
                <mxCell id="150" style="edgeStyle=none;sketch=1;html=1;exitX=1;exitY=0.5;exitDx=0;exitDy=0;entryX=0;entryY=0.5;entryDx=0;entryDy=0;elbow=vertical;" edge="1" parent="1" source="148" target="149">
                    <mxGeometry relative="1" as="geometry"/>
                </mxCell>
                <mxCell id="163" style="edgeStyle=none;sketch=1;html=1;exitX=1;exitY=0.5;exitDx=0;exitDy=0;entryX=0;entryY=0.5;entryDx=0;entryDy=0;elbow=vertical;" edge="1" parent="1" source="148" target="162">
                    <mxGeometry relative="1" as="geometry"/>
                </mxCell>
                <mxCell id="148" value="HTTP/2.0" style="rounded=0;whiteSpace=wrap;html=1;fillColor=#ffe6cc;strokeColor=#d79b00;comic=1;" vertex="1" parent="1">
                    <mxGeometry x="40" y="2350" width="80" height="30" as="geometry"/>
                </mxCell>
                <mxCell id="152" style="edgeStyle=orthogonalEdgeStyle;sketch=1;html=1;exitX=1;exitY=0.5;exitDx=0;exitDy=0;entryX=0;entryY=0.5;entryDx=0;entryDy=0;elbow=vertical;curved=1;" edge="1" parent="1" source="149" target="151">
                    <mxGeometry relative="1" as="geometry"/>
                </mxCell>
                <mxCell id="156" style="edgeStyle=orthogonalEdgeStyle;sketch=1;html=1;exitX=1;exitY=0.5;exitDx=0;exitDy=0;entryX=0;entryY=0.5;entryDx=0;entryDy=0;elbow=vertical;curved=1;" edge="1" parent="1" source="149" target="153">
                    <mxGeometry relative="1" as="geometry"/>
                </mxCell>
                <mxCell id="157" style="edgeStyle=orthogonalEdgeStyle;sketch=1;html=1;exitX=1;exitY=0.5;exitDx=0;exitDy=0;entryX=0;entryY=0.5;entryDx=0;entryDy=0;elbow=vertical;curved=1;" edge="1" parent="1" source="149" target="154">
                    <mxGeometry relative="1" as="geometry"/>
                </mxCell>
                <mxCell id="159" style="edgeStyle=orthogonalEdgeStyle;sketch=1;html=1;exitX=1;exitY=0.5;exitDx=0;exitDy=0;entryX=0;entryY=0.5;entryDx=0;entryDy=0;elbow=vertical;curved=1;" edge="1" parent="1" source="149" target="155">
                    <mxGeometry relative="1" as="geometry"/>
                </mxCell>
                <mxCell id="161" style="edgeStyle=orthogonalEdgeStyle;sketch=1;html=1;exitX=1;exitY=0.5;exitDx=0;exitDy=0;entryX=0;entryY=0.5;entryDx=0;entryDy=0;elbow=vertical;curved=1;" edge="1" parent="1" source="149" target="160">
                    <mxGeometry relative="1" as="geometry"/>
                </mxCell>
                <mxCell id="149" value="优化点" style="rounded=0;whiteSpace=wrap;html=1;fillColor=#b0e3e6;strokeColor=#0e8088;comic=1;" vertex="1" parent="1">
                    <mxGeometry x="160" y="2280" width="70" height="28" as="geometry"/>
                </mxCell>
                <mxCell id="165" style="edgeStyle=orthogonalEdgeStyle;curved=1;sketch=1;html=1;exitX=1;exitY=0.5;exitDx=0;exitDy=0;entryX=0;entryY=0.5;entryDx=0;entryDy=0;elbow=vertical;" edge="1" parent="1" source="151" target="164">
                    <mxGeometry relative="1" as="geometry"/>
                </mxCell>
                <mxCell id="151" value="头部压缩" style="rounded=0;whiteSpace=wrap;html=1;fillColor=#dae8fc;strokeColor=#6c8ebf;comic=1;" vertex="1" parent="1">
                    <mxGeometry x="280" y="2230" width="70" height="28" as="geometry"/>
                </mxCell>
                <mxCell id="169" style="edgeStyle=orthogonalEdgeStyle;curved=1;sketch=1;html=1;exitX=1;exitY=0.5;exitDx=0;exitDy=0;entryX=0;entryY=0.5;entryDx=0;entryDy=0;elbow=vertical;" edge="1" parent="1" source="153" target="168">
                    <mxGeometry relative="1" as="geometry"/>
                </mxCell>
                <mxCell id="153" value="二进制格式" style="rounded=0;whiteSpace=wrap;html=1;fillColor=#dae8fc;strokeColor=#6c8ebf;comic=1;" vertex="1" parent="1">
                    <mxGeometry x="280" y="2280" width="70" height="28" as="geometry"/>
                </mxCell>
                <mxCell id="175" style="edgeStyle=orthogonalEdgeStyle;curved=1;sketch=1;html=1;exitX=1;exitY=0.5;exitDx=0;exitDy=0;entryX=0;entryY=0.5;entryDx=0;entryDy=0;elbow=vertical;" edge="1" parent="1" source="154" target="174">
                    <mxGeometry relative="1" as="geometry"/>
                </mxCell>
                <mxCell id="154" value="数据流" style="rounded=0;whiteSpace=wrap;html=1;fillColor=#dae8fc;strokeColor=#6c8ebf;comic=1;" vertex="1" parent="1">
                    <mxGeometry x="280" y="2444.77" width="70" height="28" as="geometry"/>
                </mxCell>
                <mxCell id="181" style="edgeStyle=orthogonalEdgeStyle;curved=1;sketch=1;html=1;exitX=1;exitY=0.5;exitDx=0;exitDy=0;entryX=0;entryY=0.5;entryDx=0;entryDy=0;elbow=vertical;" edge="1" parent="1" source="155" target="180">
                    <mxGeometry relative="1" as="geometry"/>
                </mxCell>
                <mxCell id="155" value="多路复用" style="rounded=0;whiteSpace=wrap;html=1;fillColor=#dae8fc;strokeColor=#6c8ebf;comic=1;" vertex="1" parent="1">
                    <mxGeometry x="280" y="2530" width="70" height="28" as="geometry"/>
                </mxCell>
                <mxCell id="185" style="edgeStyle=orthogonalEdgeStyle;curved=1;sketch=1;html=1;exitX=1;exitY=0.5;exitDx=0;exitDy=0;entryX=0;entryY=0.5;entryDx=0;entryDy=0;elbow=vertical;" edge="1" parent="1" source="160" target="184">
                    <mxGeometry relative="1" as="geometry"/>
                </mxCell>
                <mxCell id="160" value="服务器推送" style="rounded=0;whiteSpace=wrap;html=1;fillColor=#dae8fc;strokeColor=#6c8ebf;comic=1;" vertex="1" parent="1">
                    <mxGeometry x="280" y="2598.25" width="70" height="28" as="geometry"/>
                </mxCell>
                <mxCell id="189" style="edgeStyle=none;sketch=1;html=1;exitX=1;exitY=0.5;exitDx=0;exitDy=0;entryX=0;entryY=0.5;entryDx=0;entryDy=0;elbow=vertical;" edge="1" parent="1" source="162" target="188">
                    <mxGeometry relative="1" as="geometry"/>
                </mxCell>
                <mxCell id="162" value="缺陷" style="rounded=0;whiteSpace=wrap;html=1;fillColor=#b0e3e6;strokeColor=#0e8088;comic=1;" vertex="1" parent="1">
                    <mxGeometry x="160" y="2985.5" width="70" height="28" as="geometry"/>
                </mxCell>
                <mxCell id="167" style="edgeStyle=orthogonalEdgeStyle;curved=1;sketch=1;html=1;exitX=1;exitY=0.5;exitDx=0;exitDy=0;entryX=0;entryY=0.5;entryDx=0;entryDy=0;elbow=vertical;" edge="1" parent="1" source="164" target="166">
                    <mxGeometry relative="1" as="geometry"/>
                </mxCell>
                <mxCell id="164" value="如果你同时发出多个请求，他们的 HTTP 请求头是一样的或是相似的，那么协议会帮你&lt;b&gt;消除重复的部分&lt;/b&gt;。" style="rounded=0;whiteSpace=wrap;html=1;fillColor=#ffe6cc;strokeColor=#d79b00;comic=1;align=left;sketch=1;" vertex="1" parent="1">
                    <mxGeometry x="382.5" y="2224" width="297.5" height="40" as="geometry"/>
                </mxCell>
                <mxCell id="166" value="HPACK 算法" style="rounded=0;whiteSpace=wrap;html=1;fillColor=#dae8fc;strokeColor=#6c8ebf;comic=1;align=center;sketch=1;" vertex="1" parent="1">
                    <mxGeometry x="700.86" y="2232" width="77.5" height="24" as="geometry"/>
                </mxCell>
                <mxCell id="171" style="edgeStyle=orthogonalEdgeStyle;curved=1;sketch=1;html=1;exitX=1;exitY=0.5;exitDx=0;exitDy=0;entryX=0;entryY=0.5;entryDx=0;entryDy=0;elbow=vertical;" edge="1" parent="1" source="168" target="170">
                    <mxGeometry relative="1" as="geometry"/>
                </mxCell>
                <mxCell id="173" style="edgeStyle=orthogonalEdgeStyle;curved=1;sketch=1;html=1;exitX=1;exitY=0.5;exitDx=0;exitDy=0;entryX=0.5;entryY=0;entryDx=0;entryDy=0;elbow=vertical;" edge="1" parent="1" source="168" target="172">
                    <mxGeometry relative="1" as="geometry"/>
                </mxCell>
                <mxCell id="168" value="HTTP/1.1：头部&amp;lt;纯文本&amp;gt;，数据体&amp;lt;二进制数据&amp;gt;&lt;br&gt;HTTP/2.0：头部和数据体&lt;b&gt;都是二进制&lt;/b&gt;" style="rounded=0;whiteSpace=wrap;html=1;fillColor=#ffe6cc;strokeColor=#d79b00;comic=1;align=left;sketch=1;" vertex="1" parent="1">
                    <mxGeometry x="382.5" y="2274" width="267.5" height="40" as="geometry"/>
                </mxCell>
                <mxCell id="170" value="" style="shape=image;imageAspect=0;aspect=fixed;verticalLabelPosition=bottom;verticalAlign=top;comic=1;sketch=1;image=https://codereaper-image-bed.oss-cn-shenzhen.aliyuncs.com/img/image-20220823155346848.png;imageBorder=default;" vertex="1" parent="1">
                    <mxGeometry x="810" y="2212.45" width="321.25" height="163.1" as="geometry"/>
                </mxCell>
                <mxCell id="172" value="收到报文后，无需再将明文的报文转成二进制，而是直接解析二进制报文，这&lt;b&gt;增加了数据传输的效率&lt;/b&gt;" style="rounded=0;whiteSpace=wrap;html=1;fillColor=#dae8fc;strokeColor=#6c8ebf;comic=1;align=left;sketch=1;" vertex="1" parent="1">
                    <mxGeometry x="530" y="2324" width="267.5" height="40" as="geometry"/>
                </mxCell>
                <mxCell id="177" style="edgeStyle=orthogonalEdgeStyle;curved=1;sketch=1;html=1;exitX=1;exitY=0.5;exitDx=0;exitDy=0;entryX=0;entryY=0.5;entryDx=0;entryDy=0;elbow=vertical;" edge="1" parent="1" source="174" target="176">
                    <mxGeometry relative="1" as="geometry"/>
                </mxCell>
                <mxCell id="174" value="HTTP/2 的数据包&lt;b&gt;不是按顺序发送的&lt;/b&gt;，同一个连接里面&lt;b&gt;连续的数据包，可能属于不同的回应&lt;/b&gt;。因此，必须要对数据包做标记，指出它属于哪个回应，这个标记就是StreamID" style="rounded=0;whiteSpace=wrap;html=1;fillColor=#ffe6cc;strokeColor=#d79b00;comic=1;align=left;sketch=1;" vertex="1" parent="1">
                    <mxGeometry x="377.5" y="2434.53" width="392.5" height="48.5" as="geometry"/>
                </mxCell>
                <mxCell id="179" style="edgeStyle=orthogonalEdgeStyle;curved=1;sketch=1;html=1;exitX=1;exitY=0.5;exitDx=0;exitDy=0;entryX=0;entryY=0.5;entryDx=0;entryDy=0;elbow=vertical;" edge="1" parent="1" source="176" target="178">
                    <mxGeometry relative="1" as="geometry"/>
                </mxCell>
                <mxCell id="176" value="" style="shape=image;imageAspect=0;aspect=fixed;verticalLabelPosition=bottom;verticalAlign=top;comic=1;sketch=1;image=https://codereaper-image-bed.oss-cn-shenzhen.aliyuncs.com/img/image-20220823161017327.png;imageBorder=default;" vertex="1" parent="1">
                    <mxGeometry x="810" y="2387.55" width="352.73" height="142.45" as="geometry"/>
                </mxCell>
                <mxCell id="178" value="" style="shape=image;imageAspect=0;aspect=fixed;verticalLabelPosition=bottom;verticalAlign=top;comic=1;sketch=1;image=https://codereaper-image-bed.oss-cn-shenzhen.aliyuncs.com/img/image-20220823161123614.png;imageBorder=default;" vertex="1" parent="1">
                    <mxGeometry x="1190" y="2404.27" width="520" height="109" as="geometry"/>
                </mxCell>
                <mxCell id="183" style="edgeStyle=orthogonalEdgeStyle;curved=1;sketch=1;html=1;exitX=1;exitY=0.5;exitDx=0;exitDy=0;entryX=0;entryY=0.5;entryDx=0;entryDy=0;elbow=vertical;" edge="1" parent="1" source="180" target="182">
                    <mxGeometry relative="1" as="geometry"/>
                </mxCell>
                <mxCell id="180" value="基于切分数据帧和数据流的机制可以一个连接中并发多个请求或回应，达到多路复用的效果，同时也&lt;b&gt;解决了服务端队头阻塞&lt;/b&gt;" style="rounded=0;whiteSpace=wrap;html=1;fillColor=#ffe6cc;strokeColor=#d79b00;comic=1;align=left;sketch=1;" vertex="1" parent="1">
                    <mxGeometry x="380" y="2519.75" width="330" height="48.5" as="geometry"/>
                </mxCell>
                <mxCell id="182" value="" style="shape=image;imageAspect=0;aspect=fixed;verticalLabelPosition=bottom;verticalAlign=top;comic=1;sketch=1;image=https://cdn.xiaolincoding.com/gh/xiaolincoder/ImageHost/%E8%AE%A1%E7%AE%97%E6%9C%BA%E7%BD%91%E7%BB%9C/HTTP/26-%E5%A4%9A%E8%B7%AF%E5%A4%8D%E7%94%A8.png;imageBorder=default;" vertex="1" parent="1">
                    <mxGeometry x="810" y="2540" width="199.88" height="205.27" as="geometry"/>
                </mxCell>
                <mxCell id="187" style="sketch=1;html=1;exitX=0.5;exitY=1;exitDx=0;exitDy=0;entryX=0.5;entryY=0;entryDx=0;entryDy=0;elbow=vertical;" edge="1" parent="1" source="184" target="186">
                    <mxGeometry relative="1" as="geometry"/>
                </mxCell>
                <mxCell id="184" value="在一定程度上改善了传统的「请求 - 应答」工作模式，服务端不再是被动地响应，&lt;b&gt;可以主动向客户端发送消息&lt;/b&gt;" style="rounded=0;whiteSpace=wrap;html=1;fillColor=#ffe6cc;strokeColor=#d79b00;comic=1;align=left;sketch=1;" vertex="1" parent="1">
                    <mxGeometry x="380" y="2588" width="330" height="48.5" as="geometry"/>
                </mxCell>
                <mxCell id="186" value="" style="shape=image;imageAspect=0;aspect=fixed;verticalLabelPosition=bottom;verticalAlign=top;comic=1;sketch=1;image=https://cdn.xiaolincoding.com/gh/xiaolincoder/ImageHost4@main/%E7%BD%91%E7%BB%9C/http2/push.png;imageBorder=default;" vertex="1" parent="1">
                    <mxGeometry x="354.73" y="2660" width="380.54" height="191" as="geometry"/>
                </mxCell>
                <mxCell id="191" style="edgeStyle=none;sketch=1;html=1;exitX=1;exitY=0.5;exitDx=0;exitDy=0;entryX=0;entryY=0.5;entryDx=0;entryDy=0;elbow=vertical;" edge="1" parent="1" source="188" target="190">
                    <mxGeometry relative="1" as="geometry"/>
                </mxCell>
                <mxCell id="188" value="TCP队头阻塞" style="rounded=0;whiteSpace=wrap;html=1;fillColor=#dae8fc;strokeColor=#6c8ebf;comic=1;" vertex="1" parent="1">
                    <mxGeometry x="260.86" y="2985.5" width="84.14" height="28" as="geometry"/>
                </mxCell>
                <mxCell id="190" value="" style="shape=image;imageAspect=0;aspect=fixed;verticalLabelPosition=bottom;verticalAlign=top;comic=1;sketch=1;image=https://codereaper-image-bed.oss-cn-shenzhen.aliyuncs.com/img/image-20220823161710694.png;imageBorder=default;" vertex="1" parent="1">
                    <mxGeometry x="387.18" y="2870" width="268.82" height="259" as="geometry"/>
                </mxCell>
            </root>
        </mxGraphModel>
    </diagram>
</mxfile>